<?xml version="1.0" standalone="no"?>
<!DOCTYPE svg PUBLIC "-//W3C//DTD SVG 20010904//EN"
 "http://www.w3.org/TR/2001/REC-SVG-20010904/DTD/svg10.dtd">
<svg version="1.0" xmlns="http://www.w3.org/2000/svg"
 width="512.000000pt" height="512.000000pt" viewBox="0 0 512.000000 512.000000"
 preserveAspectRatio="xMidYMid meet">
<metadata>
Created by potrace 1.11, written by Peter Selinger 2001-2013
</metadata>
<g transform="translate(0.000000,512.000000) scale(0.100000,-0.100000)"
fill="#000000" stroke="none">
<path d="M2410 4877 c-3 -3 -39 -7 -80 -10 -41 -4 -84 -8 -95 -11 -11 -2 -42
-7 -70 -10 -27 -4 -104 -21 -169 -37 -685 -172 -1260 -654 -1553 -1304 -45
-99 -127 -333 -136 -390 -3 -16 -12 -61 -20 -100 -8 -38 -18 -95 -22 -125 -4
-30 -9 -64 -12 -75 -3 -11 -6 -112 -8 -225 -2 -188 10 -341 39 -495 51 -265
181 -579 340 -819 354 -534 903 -896 1531 -1011 11 -2 43 -6 70 -10 28 -3 77
-10 110 -15 61 -8 459 -6 505 3 14 3 59 11 100 17 156 24 415 99 535 154 17 8
59 28 95 44 104 47 381 217 410 251 3 3 37 32 75 63 95 77 250 235 331 338
138 175 275 411 339 585 14 39 30 79 35 90 22 50 81 278 96 369 3 21 7 48 9
59 28 140 27 552 -1 690 -2 12 -9 51 -15 86 -5 36 -12 67 -14 71 -2 4 -6 20
-9 36 -3 17 -19 76 -36 132 -133 449 -413 858 -796 1162 -274 218 -706 410
-1024 455 -25 3 -72 11 -105 16 -60 10 -447 24 -455 16z m1914 -2337 c-2 -80
-13 -185 -29 -265 -8 -38 -16 -82 -19 -96 -10 -59 -80 -251 -130 -353 -126
-260 -319 -488 -563 -664 -111 -80 -272 -166 -407 -216 -65 -24 -237 -71 -296
-80 -19 -3 -46 -8 -60 -11 -74 -15 -316 -21 -425 -10 -300 31 -630 154 -850
317 -455 339 -711 811 -739 1360 -2 37 -1 69 1 71 2 2 794 3 1761 3 l1757 -1
-1 -55z"/>
</g>
</svg>
