<?xml version="1.0" standalone="no"?>
<!DOCTYPE svg PUBLIC "-//W3C//DTD SVG 20010904//EN"
 "http://www.w3.org/TR/2001/REC-SVG-20010904/DTD/svg10.dtd">
<svg version="1.0" xmlns="http://www.w3.org/2000/svg"
 width="101.000000pt" height="101.000000pt" viewBox="0 0 101.000000 101.000000"
 preserveAspectRatio="xMidYMid meet">
<metadata>
Created by potrace 1.11, written by Peter Selinger 2001-2013
</metadata>
<g transform="translate(0.000000,101.000000) scale(0.100000,-0.100000)"
fill="#000000" stroke="none">
<path d="M376 973 c-260 -59 -428 -338 -360 -597 51 -193 222 -341 420 -362
l54 -6 0 490 0 491 -27 -1 c-16 -1 -54 -7 -87 -15z"/>
<path d="M518 983 c-2 -5 -3 -114 -3 -243 l1 -235 34 -1 c87 -2 208 51 295
128 82 74 147 205 157 318 l3 35 -242 3 c-133 1 -243 -1 -245 -5z"/>
<path d="M664 476 c-88 -41 -141 -113 -148 -203 -13 -174 160 -306 325 -248
62 22 101 55 133 115 110 201 -103 432 -310 336z"/>
</g>
</svg>
